<svg width="165" height="58" viewBox="0 0 165 58" fill="none" xmlns="http://www.w3.org/2000/svg">
<path d="M9.93 13.3H3.6V10H20.49V13.3H14.16V31H9.93V13.3ZM32.5479 26.11H24.3279L22.9179 31H18.6879L23.8179 14.26C24.1779 13.06 24.5579 12.13 24.9579 11.47C25.3579 10.81 25.8279 10.34 26.3679 10.06C26.9279 9.78 27.6179 9.64 28.4379 9.64C29.2579 9.64 29.9379 9.78 30.4779 10.06C31.0179 10.34 31.4879 10.81 31.8879 11.47C32.3079 12.13 32.6979 13.06 33.0579 14.26L38.1879 31H33.9579L32.5479 26.11ZM31.6179 22.96L29.0979 14.32C28.9579 13.8 28.7379 13.54 28.4379 13.54C28.1379 13.54 27.9179 13.8 27.7779 14.32L25.2579 22.96H31.6179ZM41.3508 10H49.1508C51.5108 10 53.3708 10.34 54.7308 11.02C56.1108 11.7 57.1008 12.8 57.7008 14.32C58.3208 15.82 58.6308 17.88 58.6308 20.5C58.6308 23.12 58.3208 25.19 57.7008 26.71C57.1008 28.21 56.1108 29.3 54.7308 29.98C53.3708 30.66 51.5108 31 49.1508 31H41.3508V10ZM49.1508 27.7C50.4708 27.7 51.5108 27.47 52.2708 27.01C53.0308 26.55 53.5708 25.8 53.8908 24.76C54.2308 23.72 54.4008 22.3 54.4008 20.5C54.4008 18.7 54.2308 17.28 53.8908 16.24C53.5708 15.2 53.0308 14.45 52.2708 13.99C51.5108 13.53 50.4708 13.3 49.1508 13.3H45.5808V27.7H49.1508ZM73.3877 26.11H65.1677L63.7577 31H59.5277L64.6577 14.26C65.0177 13.06 65.3977 12.13 65.7977 11.47C66.1977 10.81 66.6677 10.34 67.2077 10.06C67.7677 9.78 68.4577 9.64 69.2777 9.64C70.0977 9.64 70.7777 9.78 71.3177 10.06C71.8577 10.34 72.3277 10.81 72.7277 11.47C73.1477 12.13 73.5377 13.06 73.8977 14.26L79.0277 31H74.7977L73.3877 26.11ZM72.4577 22.96L69.9377 14.32C69.7977 13.8 69.5777 13.54 69.2777 13.54C68.9777 13.54 68.7577 13.8 68.6177 14.32L66.0977 22.96H72.4577ZM82.1906 10H90.6806C93.2406 10 95.1306 10.55 96.3506 11.65C97.5706 12.73 98.1806 14.41 98.1806 16.69C98.1806 18.97 97.5706 20.66 96.3506 21.76C95.1306 22.84 93.2406 23.38 90.6806 23.38H86.4206V31H82.1906V10ZM90.8006 20.08C91.7206 20.08 92.4706 19.8 93.0506 19.24C93.6506 18.68 93.9506 17.83 93.9506 16.69C93.9506 15.55 93.6506 14.7 93.0506 14.14C92.4706 13.58 91.7206 13.3 90.8006 13.3H86.4206V20.08H90.8006ZM105.409 13.3H99.0785V10H115.969V13.3H109.639V31H105.409V13.3ZM119.105 10H123.335V31H119.105V10ZM135.951 31.36C135.131 31.36 134.441 31.22 133.881 30.94C133.341 30.66 132.861 30.19 132.441 29.53C132.041 28.85 131.671 27.92 131.331 26.74L126.471 10H130.701L135.291 26.68C135.431 27.2 135.651 27.46 135.951 27.46C136.251 27.46 136.471 27.2 136.611 26.68L141.201 10H145.431L140.571 26.74C140.231 27.92 139.851 28.85 139.431 29.53C139.031 30.19 138.551 30.66 137.991 30.94C137.451 31.22 136.771 31.36 135.951 31.36ZM154.501 31C151.841 31 149.931 30.44 148.771 29.32C147.611 28.2 147.031 26.58 147.031 24.46V16.54C147.031 14.42 147.611 12.8 148.771 11.68C149.931 10.56 151.841 10 154.501 10H161.521V13.3H154.501C153.401 13.3 152.581 13.56 152.041 14.08C151.521 14.6 151.261 15.42 151.261 16.54V18.85H160.201V22.15H151.261V24.46C151.261 25.56 151.521 26.38 152.041 26.92C152.581 27.44 153.401 27.7 154.501 27.7H161.581V31H154.501Z" fill="#6E6587"/>
<path d="M46.5223 45.1409C47.028 45.2485 47.4422 45.4206 47.765 45.6573C48.0878 45.894 48.3621 46.2168 48.5881 46.6257C48.8248 47.0345 49.0615 47.5779 49.2982 48.2557L50.5409 52H48.6203L47.4261 48.4333C47.2754 47.9814 47.1248 47.6317 46.9742 47.3842C46.8235 47.1367 46.6191 46.9377 46.3609 46.7871C46.1026 46.6364 45.7422 46.5342 45.2795 46.4804L43.2783 48.6592V52H41.3739V40.7026H43.2783V46.3029L48.346 40.7026H50.6216L46.5223 45.1409ZM53.0186 40.7026H54.9231V52H53.0186V40.7026ZM57.6977 47.3681H62.1198V48.5462H57.6977V47.3681ZM68.0685 52.1937C67.3261 52.1937 66.6967 52.1184 66.1802 51.9677C65.6745 51.8063 65.2388 51.575 64.873 51.2737C64.5071 50.9725 64.1359 50.5744 63.7594 50.0794L65.0505 48.9981C65.4916 49.6114 65.9328 50.0472 66.3739 50.3054C66.8258 50.5636 67.3853 50.6927 68.0524 50.6927C68.9562 50.6927 69.6286 50.5475 70.0698 50.257C70.5109 49.9665 70.7315 49.52 70.7315 48.9174C70.7315 48.5839 70.6346 48.3149 70.441 48.1105C70.258 47.8953 69.9299 47.7124 69.4565 47.5617C68.9938 47.4003 68.2998 47.2228 67.3745 47.0291C66.3201 46.814 65.5347 46.4374 65.0182 45.8994C64.5018 45.3614 64.2435 44.6459 64.2435 43.7529C64.2435 43.0966 64.4103 42.5263 64.7438 42.0422C65.0774 41.5472 65.5508 41.1706 66.1641 40.9124C66.7774 40.6434 67.4983 40.5089 68.3267 40.5089C69.3381 40.5089 70.1612 40.665 70.796 40.977C71.4416 41.289 71.9527 41.7517 72.3292 42.3649L71.0704 43.3978C70.6508 42.9137 70.2365 42.564 69.8277 42.3488C69.4296 42.1229 68.9239 42.0099 68.3106 42.0099C67.622 42.0099 67.0894 42.1659 66.7128 42.4779C66.3362 42.7792 66.1479 43.2096 66.1479 43.769C66.1479 44.2747 66.3578 44.6621 66.7774 44.9311C67.197 45.1893 67.778 45.3991 68.5204 45.5605C69.478 45.7542 70.2419 45.9693 70.8122 46.2061C71.3824 46.432 71.8289 46.7602 72.1517 47.1905C72.4745 47.6209 72.6359 48.1965 72.6359 48.9174C72.6359 51.1016 71.1134 52.1937 68.0685 52.1937ZM77.4191 42.2035H73.9169V40.7026H82.8096V42.2035H79.3235V52H77.4191V42.2035ZM94.1018 52H92.0844L91.3259 49.3693C91.1752 48.8421 91.0192 48.4333 90.8578 48.1427C90.6964 47.8415 90.4705 47.6155 90.18 47.4649C89.9003 47.3143 89.5183 47.239 89.0341 47.239H87.0651V52H85.1607V40.7026H89.8249C91.0945 40.7026 92.0414 40.9716 92.6654 41.5096C93.2895 42.0475 93.6015 42.8599 93.6015 43.9466C93.6015 44.7105 93.4078 45.3238 93.0205 45.7864C92.6331 46.2491 92.0898 46.5396 91.3904 46.6579C91.9176 46.8409 92.3211 47.1529 92.6009 47.594C92.8806 48.0352 93.1281 48.6269 93.3433 49.3693L94.1018 52ZM89.8249 45.738C90.3844 45.738 90.8363 45.5874 91.1806 45.2861C91.5249 44.9849 91.6971 44.5491 91.6971 43.9789C91.6971 43.3978 91.5249 42.9567 91.1806 42.6554C90.8363 42.3542 90.3844 42.2035 89.8249 42.2035H87.0651V45.738H89.8249ZM103.007 49.0304H98.3751L97.4875 52H95.5831L98.4074 42.8491C98.5903 42.2466 98.7786 41.7786 98.9723 41.445C99.1767 41.1115 99.4134 40.8748 99.6824 40.7349C99.9514 40.5843 100.29 40.5089 100.699 40.5089C101.097 40.5089 101.431 40.5843 101.7 40.7349C101.969 40.8748 102.205 41.1115 102.41 41.445C102.614 41.7786 102.808 42.2466 102.991 42.8491L105.799 52H103.895L103.007 49.0304ZM102.587 47.6102L101.183 42.8814C101.119 42.6662 101.049 42.5102 100.974 42.4134C100.909 42.3165 100.818 42.2681 100.699 42.2681C100.581 42.2681 100.484 42.3165 100.409 42.4134C100.333 42.5102 100.263 42.6662 100.199 42.8814L98.7948 47.6102H102.587ZM109.012 42.2035H105.51V40.7026H114.403V42.2035H110.917V52H109.012V42.2035ZM119.844 52C118.477 52 117.482 51.7095 116.858 51.1285C116.234 50.5367 115.922 49.6706 115.922 48.5301V44.1725C115.922 43.032 116.234 42.1713 116.858 41.5903C117.482 40.9985 118.477 40.7026 119.844 40.7026H123.653V42.2035H119.844C119.155 42.2035 118.644 42.3649 118.311 42.6877C117.988 42.9997 117.826 43.4947 117.826 44.1725V45.6089H122.91V47.0937H117.826V48.5301C117.826 49.2079 117.988 49.7082 118.311 50.031C118.644 50.343 119.155 50.4991 119.844 50.4991H123.717V52H119.844ZM130.278 52.1937C128.761 52.1937 127.599 51.844 126.792 51.1446C125.996 50.4453 125.597 49.4231 125.597 48.0782V44.6244C125.597 43.2795 125.996 42.2573 126.792 41.558C127.599 40.8586 128.761 40.5089 130.278 40.5089C131.321 40.5089 132.188 40.6757 132.876 41.0093C133.576 41.332 134.135 41.8162 134.555 42.4618L133.118 43.4624C132.774 42.9567 132.387 42.5909 131.956 42.3649C131.526 42.1282 130.966 42.0099 130.278 42.0099C129.331 42.0099 128.632 42.2304 128.18 42.6716C127.728 43.102 127.502 43.7529 127.502 44.6244V48.0782C127.502 48.9497 127.728 49.606 128.18 50.0472C128.632 50.4775 129.331 50.6927 130.278 50.6927C131.106 50.6927 131.746 50.5475 132.198 50.257C132.65 49.9665 132.876 49.5522 132.876 49.0143V48.3364C132.876 47.5617 132.505 47.1744 131.763 47.1744H129.89V45.6735H132.263C133.102 45.6735 133.726 45.8725 134.135 46.2706C134.544 46.6579 134.748 47.2605 134.748 48.0782V49.1434C134.748 49.7674 134.565 50.3108 134.2 50.7734C133.834 51.2253 133.312 51.575 132.634 51.8225C131.967 52.0699 131.182 52.1937 130.278 52.1937ZM137.474 40.7026H139.379V52H137.474V40.7026ZM146.204 52C144.838 52 143.843 51.7095 143.218 51.1285C142.594 50.5367 142.282 49.6706 142.282 48.5301V44.1725C142.282 43.032 142.594 42.1713 143.218 41.5903C143.843 40.9985 144.838 40.7026 146.204 40.7026H150.013V42.2035H146.204C145.516 42.2035 145.005 42.3649 144.671 42.6877C144.348 42.9997 144.187 43.4947 144.187 44.1725V45.6089H149.271V47.0937H144.187V48.5301C144.187 49.2079 144.348 49.7082 144.671 50.031C145.005 50.343 145.516 50.4991 146.204 50.4991H150.078V52H146.204ZM161.781 40.7026V49.6598C161.781 50.4345 161.619 51.0209 161.297 51.419C160.985 51.8063 160.484 52 159.796 52H158.456L154.47 43.6883V52H152.678V40.7026H154.857L159.457 50.3699H159.538C159.71 50.3699 159.828 50.3 159.893 50.1601C159.957 50.0095 159.989 49.7513 159.989 49.3855V40.7026H161.781Z" fill="#975FF3"/>
</svg>
