<svg width="165" height="58" viewBox="0 0 165 58" fill="none" xmlns="http://www.w3.org/2000/svg">
<path d="M9.93 13.3H3.6V10H20.49V13.3H14.16V31H9.93V13.3ZM32.5479 26.11H24.3279L22.9179 31H18.6879L23.8179 14.26C24.1779 13.06 24.5579 12.13 24.9579 11.47C25.3579 10.81 25.8279 10.34 26.3679 10.06C26.9279 9.78 27.6179 9.64 28.4379 9.64C29.2579 9.64 29.9379 9.78 30.4779 10.06C31.0179 10.34 31.4879 10.81 31.8879 11.47C32.3079 12.13 32.6979 13.06 33.0579 14.26L38.1879 31H33.9579L32.5479 26.11ZM31.6179 22.96L29.0979 14.32C28.9579 13.8 28.7379 13.54 28.4379 13.54C28.1379 13.54 27.9179 13.8 27.7779 14.32L25.2579 22.96H31.6179ZM41.3508 10H49.1508C51.5108 10 53.3708 10.34 54.7308 11.02C56.1108 11.7 57.1008 12.8 57.7008 14.32C58.3208 15.82 58.6308 17.88 58.6308 20.5C58.6308 23.12 58.3208 25.19 57.7008 26.71C57.1008 28.21 56.1108 29.3 54.7308 29.98C53.3708 30.66 51.5108 31 49.1508 31H41.3508V10ZM49.1508 27.7C50.4708 27.7 51.5108 27.47 52.2708 27.01C53.0308 26.55 53.5708 25.8 53.8908 24.76C54.2308 23.72 54.4008 22.3 54.4008 20.5C54.4008 18.7 54.2308 17.28 53.8908 16.24C53.5708 15.2 53.0308 14.45 52.2708 13.99C51.5108 13.53 50.4708 13.3 49.1508 13.3H45.5808V27.7H49.1508ZM73.3877 26.11H65.1677L63.7577 31H59.5277L64.6577 14.26C65.0177 13.06 65.3977 12.13 65.7977 11.47C66.1977 10.81 66.6677 10.34 67.2077 10.06C67.7677 9.78 68.4577 9.64 69.2777 9.64C70.0977 9.64 70.7777 9.78 71.3177 10.06C71.8577 10.34 72.3277 10.81 72.7277 11.47C73.1477 12.13 73.5377 13.06 73.8977 14.26L79.0277 31H74.7977L73.3877 26.11ZM72.4577 22.96L69.9377 14.32C69.7977 13.8 69.5777 13.54 69.2777 13.54C68.9777 13.54 68.7577 13.8 68.6177 14.32L66.0977 22.96H72.4577ZM82.1906 10H90.6806C93.2406 10 95.1306 10.55 96.3506 11.65C97.5706 12.73 98.1806 14.41 98.1806 16.69C98.1806 18.97 97.5706 20.66 96.3506 21.76C95.1306 22.84 93.2406 23.38 90.6806 23.38H86.4206V31H82.1906V10ZM90.8006 20.08C91.7206 20.08 92.4706 19.8 93.0506 19.24C93.6506 18.68 93.9506 17.83 93.9506 16.69C93.9506 15.55 93.6506 14.7 93.0506 14.14C92.4706 13.58 91.7206 13.3 90.8006 13.3H86.4206V20.08H90.8006ZM105.409 13.3H99.0785V10H115.969V13.3H109.639V31H105.409V13.3ZM119.105 10H123.335V31H119.105V10ZM135.951 31.36C135.131 31.36 134.441 31.22 133.881 30.94C133.341 30.66 132.861 30.19 132.441 29.53C132.041 28.85 131.671 27.92 131.331 26.74L126.471 10H130.701L135.291 26.68C135.431 27.2 135.651 27.46 135.951 27.46C136.251 27.46 136.471 27.2 136.611 26.68L141.201 10H145.431L140.571 26.74C140.231 27.92 139.851 28.85 139.431 29.53C139.031 30.19 138.551 30.66 137.991 30.94C137.451 31.22 136.771 31.36 135.951 31.36ZM154.501 31C151.841 31 149.931 30.44 148.771 29.32C147.611 28.2 147.031 26.58 147.031 24.46V16.54C147.031 14.42 147.611 12.8 148.771 11.68C149.931 10.56 151.841 10 154.501 10H161.521V13.3H154.501C153.401 13.3 152.581 13.56 152.041 14.08C151.521 14.6 151.261 15.42 151.261 16.54V18.85H160.201V22.15H151.261V24.46C151.261 25.56 151.521 26.38 152.041 26.92C152.581 27.44 153.401 27.7 154.501 27.7H161.581V31H154.501Z" fill="#6E6587"/>
<path d="M49.451 49.0304H44.8191L43.9314 52H42.027L44.8514 42.8491C45.0343 42.2466 45.2226 41.7786 45.4162 41.445C45.6207 41.1115 45.8574 40.8748 46.1264 40.7349C46.3953 40.5843 46.7343 40.5089 47.1431 40.5089C47.5412 40.5089 47.8748 40.5843 48.1437 40.7349C48.4127 40.8748 48.6494 41.1115 48.8539 41.445C49.0583 41.7786 49.252 42.2466 49.4349 42.8491L52.2431 52H50.3387L49.451 49.0304ZM49.0314 47.6102L47.6273 42.8814C47.5627 42.6662 47.4928 42.5102 47.4175 42.4134C47.3529 42.3165 47.2615 42.2681 47.1431 42.2681C47.0248 42.2681 46.9279 42.3165 46.8526 42.4134C46.7773 42.5102 46.7074 42.6662 46.6428 42.8814L45.2387 47.6102H49.0314ZM54.6105 40.7026H56.5149V52H54.6105V40.7026ZM59.2896 47.3681H63.7117V48.5462H59.2896V47.3681ZM69.6604 52.1937C68.918 52.1937 68.2885 52.1184 67.7721 51.9677C67.2664 51.8063 66.8306 51.575 66.4648 51.2737C66.099 50.9725 65.7278 50.5744 65.3512 50.0794L66.6423 48.9981C67.0835 49.6114 67.5246 50.0472 67.9657 50.3054C68.4176 50.5636 68.9771 50.6927 69.6442 50.6927C70.548 50.6927 71.2205 50.5475 71.6616 50.257C72.1027 49.9665 72.3233 49.52 72.3233 48.9174C72.3233 48.5839 72.2265 48.3149 72.0328 48.1105C71.8499 47.8953 71.5217 47.7124 71.0483 47.5617C70.5857 47.4003 69.8917 47.2228 68.9664 47.0291C67.912 46.814 67.1265 46.4374 66.6101 45.8994C66.0936 45.3614 65.8354 44.6459 65.8354 43.7529C65.8354 43.0966 66.0022 42.5263 66.3357 42.0422C66.6692 41.5472 67.1427 41.1706 67.7559 40.9124C68.3692 40.6434 69.0901 40.5089 69.9186 40.5089C70.93 40.5089 71.7531 40.665 72.3879 40.977C73.0334 41.289 73.5445 41.7517 73.9211 42.3649L72.6622 43.3978C72.2426 42.9137 71.8284 42.564 71.4195 42.3488C71.0214 42.1229 70.5157 42.0099 69.9024 42.0099C69.2138 42.0099 68.6813 42.1659 68.3047 42.4779C67.9281 42.7792 67.7398 43.2096 67.7398 43.769C67.7398 44.2747 67.9496 44.6621 68.3692 44.9311C68.7888 45.1893 69.3699 45.3991 70.1123 45.5605C71.0698 45.7542 71.8338 45.9693 72.404 46.2061C72.9743 46.432 73.4208 46.7602 73.7436 47.1905C74.0663 47.6209 74.2277 48.1965 74.2277 48.9174C74.2277 51.1016 72.7053 52.1937 69.6604 52.1937ZM79.011 42.2035H75.5088V40.7026H84.4014V42.2035H80.9154V52H79.011V42.2035ZM95.6937 52H93.6763L92.9177 49.3693C92.7671 48.8421 92.6111 48.4333 92.4497 48.1427C92.2883 47.8415 92.0624 47.6155 91.7718 47.4649C91.4921 47.3143 91.1101 47.239 90.626 47.239H88.657V52H86.7526V40.7026H91.4168C92.6864 40.7026 93.6332 40.9716 94.2573 41.5096C94.8813 42.0475 95.1933 42.8599 95.1933 43.9466C95.1933 44.7105 94.9997 45.3238 94.6123 45.7864C94.225 46.2491 93.6816 46.5396 92.9823 46.6579C93.5095 46.8409 93.913 47.1529 94.1927 47.594C94.4725 48.0352 94.7199 48.6269 94.9351 49.3693L95.6937 52ZM91.4168 45.738C91.9763 45.738 92.4282 45.5874 92.7725 45.2861C93.1168 44.9849 93.2889 44.5491 93.2889 43.9789C93.2889 43.3978 93.1168 42.9567 92.7725 42.6554C92.4282 42.3542 91.9763 42.2035 91.4168 42.2035H88.657V45.738H91.4168ZM104.599 49.0304H99.967L99.0793 52H97.1749L99.9993 42.8491C100.182 42.2466 100.37 41.7786 100.564 41.445C100.769 41.1115 101.005 40.8748 101.274 40.7349C101.543 40.5843 101.882 40.5089 102.291 40.5089C102.689 40.5089 103.023 40.5843 103.292 40.7349C103.561 40.8748 103.797 41.1115 104.002 41.445C104.206 41.7786 104.4 42.2466 104.583 42.8491L107.391 52H105.487L104.599 49.0304ZM104.179 47.6102L102.775 42.8814C102.711 42.6662 102.641 42.5102 102.565 42.4134C102.501 42.3165 102.409 42.2681 102.291 42.2681C102.173 42.2681 102.076 42.3165 102.001 42.4134C101.925 42.5102 101.855 42.6662 101.791 42.8814L100.387 47.6102H104.179ZM110.604 42.2035H107.102V40.7026H115.994V42.2035H112.508V52H110.604V42.2035ZM121.436 52C120.069 52 119.074 51.7095 118.45 51.1285C117.826 50.5367 117.514 49.6706 117.514 48.5301V44.1725C117.514 43.032 117.826 42.1713 118.45 41.5903C119.074 40.9985 120.069 40.7026 121.436 40.7026H125.245V42.2035H121.436C120.747 42.2035 120.236 42.3649 119.902 42.6877C119.58 42.9997 119.418 43.4947 119.418 44.1725V45.6089H124.502V47.0937H119.418V48.5301C119.418 49.2079 119.58 49.7082 119.902 50.031C120.236 50.343 120.747 50.4991 121.436 50.4991H125.309V52H121.436ZM131.87 52.1937C130.353 52.1937 129.191 51.844 128.384 51.1446C127.587 50.4453 127.189 49.4231 127.189 48.0782V44.6244C127.189 43.2795 127.587 42.2573 128.384 41.558C129.191 40.8586 130.353 40.5089 131.87 40.5089C132.913 40.5089 133.779 40.6757 134.468 41.0093C135.167 41.332 135.727 41.8162 136.147 42.4618L134.71 43.4624C134.366 42.9567 133.978 42.5909 133.548 42.3649C133.118 42.1282 132.558 42.0099 131.87 42.0099C130.923 42.0099 130.223 42.2304 129.772 42.6716C129.32 43.102 129.094 43.7529 129.094 44.6244V48.0782C129.094 48.9497 129.32 49.606 129.772 50.0472C130.223 50.4775 130.923 50.6927 131.87 50.6927C132.698 50.6927 133.338 50.5475 133.79 50.257C134.242 49.9665 134.468 49.5522 134.468 49.0143V48.3364C134.468 47.5617 134.097 47.1744 133.354 47.1744H131.482V45.6735H133.855C134.694 45.6735 135.318 45.8725 135.727 46.2706C136.136 46.6579 136.34 47.2605 136.34 48.0782V49.1434C136.34 49.7674 136.157 50.3108 135.791 50.7734C135.426 51.2253 134.904 51.575 134.226 51.8225C133.559 52.0699 132.773 52.1937 131.87 52.1937ZM139.066 40.7026H140.97V52H139.066V40.7026ZM147.796 52C146.43 52 145.434 51.7095 144.81 51.1285C144.186 50.5367 143.874 49.6706 143.874 48.5301V44.1725C143.874 43.032 144.186 42.1713 144.81 41.5903C145.434 40.9985 146.43 40.7026 147.796 40.7026H151.605V42.2035H147.796C147.107 42.2035 146.596 42.3649 146.263 42.6877C145.94 42.9997 145.779 43.4947 145.779 44.1725V45.6089H150.862V47.0937H145.779V48.5301C145.779 49.2079 145.94 49.7082 146.263 50.031C146.596 50.343 147.107 50.4991 147.796 50.4991H151.669V52H147.796ZM157.772 52.1937C157.03 52.1937 156.401 52.1184 155.884 51.9677C155.378 51.8063 154.943 51.575 154.577 51.2737C154.211 50.9725 153.84 50.5744 153.463 50.0794L154.754 48.9981C155.196 49.6114 155.637 50.0472 156.078 50.3054C156.53 50.5636 157.089 50.6927 157.756 50.6927C158.66 50.6927 159.333 50.5475 159.774 50.257C160.215 49.9665 160.435 49.52 160.435 48.9174C160.435 48.5839 160.339 48.3149 160.145 48.1105C159.962 47.8953 159.634 47.7124 159.16 47.5617C158.698 47.4003 158.004 47.2228 157.078 47.0291C156.024 46.814 155.239 46.4374 154.722 45.8994C154.206 45.3614 153.947 44.6459 153.947 43.7529C153.947 43.0966 154.114 42.5263 154.448 42.0422C154.781 41.5472 155.255 41.1706 155.868 40.9124C156.481 40.6434 157.202 40.5089 158.031 40.5089C159.042 40.5089 159.865 40.665 160.5 40.977C161.146 41.289 161.657 41.7517 162.033 42.3649L160.774 43.3978C160.355 42.9137 159.94 42.564 159.532 42.3488C159.134 42.1229 158.628 42.0099 158.015 42.0099C157.326 42.0099 156.793 42.1659 156.417 42.4779C156.04 42.7792 155.852 43.2096 155.852 43.769C155.852 44.2747 156.062 44.6621 156.481 44.9311C156.901 45.1893 157.482 45.3991 158.224 45.5605C159.182 45.7542 159.946 45.9693 160.516 46.2061C161.086 46.432 161.533 46.7602 161.856 47.1905C162.178 47.6209 162.34 48.1965 162.34 48.9174C162.34 51.1016 160.817 52.1937 157.772 52.1937Z" fill="#975FF3"/>
</svg>
